<?xml version="1.0" encoding="UTF-8"?>
<svg width="80px" height="80px" viewBox="0 0 80 80" version="1.1" xmlns="http://www.w3.org/2000/svg" xmlns:xlink="http://www.w3.org/1999/xlink">
    <!-- Generator: Sketch 52.5 (67469) - http://www.bohemiancoding.com/sketch -->
    <title>Artboard Copy 2</title>
    <desc>Created with Sketch.</desc>
    <g id="Artboard-Copy-2" stroke="none" stroke-width="1" fill="none" fill-rule="evenodd">
        <g id="Group-9">
            <circle id="Oval" fill="#F4C36F" cx="40" cy="40" r="40"></circle>
            <g id="重置" transform="translate(19.000000, 19.000000)" fill="#FFFFFF">
                <path d="M41.990625,21.1170569 C41.98125,20.5692308 41.7328125,20.0307692 41.26875,19.6702341 C40.4484375,19.0287625 39.2625,19.1692308 38.615625,19.9886288 C38.3484375,20.3304348 38.2171875,20.7284281 38.2125,21.1311037 L38.19375,21.1311037 C38.165625,24.7973244 36.9703125,28.4822742 34.5375,31.5866221 C28.6828125,39.0408027 17.85,40.3471572 10.3875,34.5036789 C2.925,28.6602007 1.6125,17.8394649 7.4671875,10.3852843 C13.321875,2.93110368 24.1546875,1.62474916 31.6171875,7.46822742 C33.0046875,8.55451505 34.1765625,9.81404682 35.1328125,11.1906355 L31.6875,11.1906355 C30.6375,11.1906355 29.7796875,12.0474916 29.7796875,13.0963211 L29.7796875,13.2367893 C29.7796875,14.2856187 30.6375,15.1424749 31.6875,15.1424749 L39.9984375,15.1424749 C41.0484375,15.1424749 41.90625,14.2856187 41.90625,13.2367893 L41.90625,4.93043478 C41.90625,3.88160535 41.0484375,3.02474916 39.9984375,3.02474916 L39.8578125,3.02474916 C38.8078125,3.02474916 37.95,3.88160535 37.95,4.93043478 L37.95,8.60602007 C36.8203125,7.06555184 35.484375,5.68428094 33.95625,4.48561873 C31.725,2.73913043 29.221875,1.47959866 26.5078125,0.744481604 C23.8875,0.037458193 21.1875,-0.154515051 18.4828125,0.168561872 C15.778125,0.496321069 13.2,1.32508361 10.828125,2.64080267 C8.3671875,3.99866221 6.234375,5.82006689 4.4859375,8.04414716 C2.7375,10.2729097 1.4765625,12.7732441 0.740625,15.4842809 C0.0281249996,18.1016722 -0.1640625,20.7986622 0.1640625,23.5003344 C0.4921875,26.2020067 1.321875,28.7772575 2.6390625,31.1464883 C3.9984375,33.6046823 5.821875,35.7351171 8.0484375,37.4816054 C10.2796875,39.2280936 12.7828125,40.4876254 15.496875,41.2227425 C18.1171875,41.9344482 20.8171875,42.1264214 23.521875,41.7986622 C26.2265625,41.470903 28.8046875,40.6421405 31.1765625,39.3264214 C33.6375,37.9685619 35.7703125,36.1471572 37.51875,33.9230769 C39.2671875,31.6943144 40.528125,29.1939799 41.2640625,26.4829431 C41.7421875,24.7270903 41.9859375,22.929097 41.990625,21.1170569 Z" id="Path"></path>
            </g>
        </g>
    </g>
</svg>