<?xml version="1.0" encoding="UTF-8"?>
<svg width="26px" height="26px" viewBox="0 0 26 26" version="1.1" xmlns="http://www.w3.org/2000/svg" xmlns:xlink="http://www.w3.org/1999/xlink">
    <!-- Generator: Sketch 52.5 (67469) - http://www.bohemiancoding.com/sketch -->
    <title>Group 13</title>
    <desc>Created with Sketch.</desc>
    <g id="Page-1" stroke="none" stroke-width="1" fill="none" fill-rule="evenodd">
        <g id="宽度调整_英文版" transform="translate(-1825.000000, -159.000000)" stroke="#666666">
            <g id="Group-13" transform="translate(1826.000000, 160.000000)">
                <circle id="Oval" cx="12" cy="12" r="12"></circle>
                <g id="筛选" transform="translate(6.750000, 6.750000)" fill="#666666" fill-rule="nonzero" stroke-width="0.5">
                    <path d="M6.14370599,11.9971607 C5.89907303,11.9971607 5.65442697,11.9289911 5.43203933,11.7926518 L3.65284644,10.6565625 C3.25253558,10.406625 3.03013483,9.97490625 3.03013483,9.49774554 L3.03013483,5.61230357 L0.316913858,2.22675 C-0.0151142322,1.81903125 -0.084576779,1.25121429 0.138990637,0.772553571 C0.361391386,0.295366071 0.828425094,0 1.33993633,0 L9.14606367,0 C9.67980712,0 10.1468408,0.295379464 10.3692285,0.772540179 C10.5916423,1.24970089 10.5249195,1.81774554 10.1913184,2.22673661 L7.47808427,5.61231696 L7.47808427,10.6338348 C7.47808427,11.1337232 7.21120599,11.5881696 6.78864981,11.8153795 C6.58849438,11.9289911 6.36610674,11.9971607 6.14370599,11.9971607 Z M1.33993633,0.908879464 C1.07305805,0.908879464 0.961870787,1.113375 0.939625468,1.15881696 C0.91738015,1.20425893 0.828425094,1.43148214 1.00634831,1.63597768 L3.83078277,5.15785714 C3.89750562,5.24874107 3.94198315,5.339625 3.94198315,5.45323661 L3.94198315,9.49774554 C3.94198315,9.65678571 4.0309382,9.793125 4.14213858,9.88400893 L5.92130524,11.0201116 C6.12147378,11.1564375 6.2993839,11.0655536 6.36610674,11.0428259 C6.43282959,10.9973839 6.58849438,10.8837723 6.58849438,10.6565491 L6.58849438,5.45325 C6.58849438,5.33963839 6.63297191,5.24875446 6.69969476,5.15787054 L9.52412921,1.63597768 C9.67980712,1.43146875 9.61309738,1.20425893 9.59085206,1.15881696 C9.56860674,1.09064732 9.45740637,0.908879464 9.1905412,0.908879464 L1.33993633,0.908879464 Z" id="Shape"></path>
                </g>
            </g>
        </g>
    </g>
</svg>