<?xml version="1.0" encoding="UTF-8"?>
<svg width="18px" height="18px" viewBox="0 0 18 18" version="1.1" xmlns="http://www.w3.org/2000/svg" xmlns:xlink="http://www.w3.org/1999/xlink">
    <!-- Generator: Sketch 52.5 (67469) - http://www.bohemiancoding.com/sketch -->
    <title>Shape</title>
    <desc>Created with Sketch.</desc>
    <defs>
        <path d="M22.476951,21.8078565 C22.486524,21.8160233 22.4958493,21.824632 22.5049,21.8336827 L25.8609864,25.1897691 C26.0463379,25.3751206 26.0463379,25.6756348 25.8609864,25.8609864 C25.6756348,26.0463379 25.3751206,26.0463379 25.1897691,25.8609864 L21.8336827,22.5049 C21.824632,22.4958493 21.8160233,22.486524 21.8078565,22.476951 C20.5554238,23.5738622 18.9150159,24.2386685 17.1193342,24.2386685 C13.1874345,24.2386685 10,21.051234 10,17.1193342 C10,13.1874345 13.1874345,10 17.1193342,10 C21.051234,10 24.2386685,13.1874345 24.2386685,17.1193342 C24.2386685,18.9150159 23.5738622,20.5554238 22.476951,21.8078565 Z M17.1193342,23.2894239 C20.5269807,23.2894239 23.2894239,20.5269807 23.2894239,17.1193342 C23.2894239,13.7116878 20.5269807,10.9492446 17.1193342,10.9492446 C13.7116878,10.9492446 10.9492446,13.7116878 10.9492446,17.1193342 C10.9492446,20.5269807 13.7116878,23.2894239 17.1193342,23.2894239 Z" id="path-1"></path>
    </defs>
    <g id="Page-1" stroke="none" stroke-width="1" fill="none" fill-rule="evenodd">
        <g id="品牌筛选样式" transform="translate(-1479.000000, -273.000000)">
            <g id="Group-16" transform="translate(1440.000000, 194.000000)">
                <g id="search" transform="translate(30.000000, 70.000000)">
                    <mask id="mask-2" fill="white">
                        <use xlink:href="#path-1"></use>
                    </mask>
                    <use id="Shape" stroke="#999999" fill="#C8C9CF" xlink:href="#path-1"></use>
                </g>
            </g>
        </g>
    </g>
</svg>