<?xml version="1.0" encoding="UTF-8"?>
<svg width="42px" height="40px" viewBox="0 0 42 40" version="1.1" xmlns="http://www.w3.org/2000/svg" xmlns:xlink="http://www.w3.org/1999/xlink">
    <!-- Generator: Sketch 52.5 (67469) - http://www.bohemiancoding.com/sketch -->
    <title>按钮</title>
    <desc>Created with Sketch.</desc>
    <g id="按钮" stroke="none" stroke-width="1" fill="none" fill-rule="evenodd">
        <g id="Group-9">
            <path d="M41.5,39.5 L41.5,0.5 L2,0.5 C1.17157288,0.5 0.5,1.17157288 0.5,2 L0.5,38 C0.5,38.8284271 1.17157288,39.5 2,39.5 L41.5,39.5 Z" id="Rectangle" stroke="#D6D6D6" fill="#FFFFFF"></path>
            <g id="Group-6" transform="translate(10.000000, 12.000000)">
                <rect id="Rectangle" x="3" y="0" width="16" height="16"></rect>
                <polygon id="Path" fill="#999999" fill-rule="nonzero" transform="translate(11.250000, 7.750000) rotate(45.000000) translate(-11.250000, -7.750000) " points="14.5 4.5 7 4.5 7 3.5 15.5 3.5 15.5 12 14.5 12"></polygon>
                <polygon id="Path" fill="#999999" fill-rule="nonzero" transform="translate(6.250000, 7.750000) rotate(45.000000) translate(-6.250000, -7.750000) " points="9.5 4.5 2 4.5 2 3.5 10.5 3.5 10.5 12 9.5 12"></polygon>
            </g>
        </g>
    </g>
</svg>